HIERARCHY
ROOT Hips
{
    OFFSET 0.000000 0.000000 0.000000
    CHANNELS 6 Xposition Yposition Zposition Zrotation Xrotation Yrotation
    JOINT Spine
    {
        OFFSET -0.000000 14.517291 0.000000
        CHANNELS 3 Zrotation Xrotation Yrotation
        JOINT Spine1
        {
            OFFSET -0.000000 37.558300 0.000000
            CHANNELS 3 Zrotation Xrotation Yrotation
            JOINT Neck
            {
                OFFSET -0.000000 37.404057 3.400369
                CHANNELS 3 Zrotation Xrotation Yrotation
                JOINT Head
                {
                    OFFSET -0.000000 24.785618 -3.540803
                    CHANNELS 3 Zrotation Xrotation Yrotation
                    End Site
                    {
                        OFFSET -0.000000 35.408028 0.000000
                    }
                }
            }
            JOINT LeftShoulder
            {
                OFFSET 6.992933 33.973492 -0.192664
                CHANNELS 3 Zrotation Xrotation Yrotation
                JOINT LeftArm
                {
                    OFFSET 21.527611 0.000000 0.000000
                    CHANNELS 3 Zrotation Xrotation Yrotation
                    JOINT LeftForeArm
                    {
                        OFFSET 56.353916 0.000000 0.000000
                        CHANNELS 3 Zrotation Xrotation Yrotation
                        JOINT LeftHand
                        {
                            OFFSET 47.774071 0.000000 0.000000
                            CHANNELS 3 Zrotation Xrotation Yrotation
                            End Site
                            {
                                OFFSET 26.556021 0.000000 0.000000
                            }
                        }
                    }
                }
            }
            JOINT RightShoulder
            {
                OFFSET -7.065357 33.973492 -0.192664
                CHANNELS 3 Zrotation Xrotation Yrotation
                JOINT RightArm
                {
                    OFFSET -21.527611 0.000000 0.000000
                    CHANNELS 3 Zrotation Xrotation Yrotation
                    JOINT RightForeArm
                    {
                        OFFSET -56.353916 0.000000 0.000000
                        CHANNELS 3 Zrotation Xrotation Yrotation
                        JOINT RightHand
                        {
                            OFFSET -47.774071 0.000000 0.000000
                            CHANNELS 3 Zrotation Xrotation Yrotation
                            End Site
                            {
                                OFFSET -26.556021 0.000000 0.000000
                            }
                        }
                    }
                }
            }
        }
    }
    JOINT LeftUpLeg
    {
        OFFSET 17.704014 0.000000 0.000000
        CHANNELS 3 Zrotation Xrotation Yrotation
        JOINT LeftLeg
        {
            OFFSET -0.000000 -81.181816 0.000000
            CHANNELS 3 Zrotation Xrotation Yrotation
            JOINT LeftFoot
            {
                OFFSET -0.000000 -62.821102 0.000000
                CHANNELS 3 Zrotation Xrotation Yrotation
                JOINT LeftToeBase
                {
                    OFFSET -0.000000 -11.507608 26.556021
                    CHANNELS 3 Zrotation Xrotation Yrotation
                    End Site
                    {
                        OFFSET -0.000000 0.000000 7.081605
                    }
                }
            }
        }
    }
    JOINT RightUpLeg
    {
        OFFSET -17.704014 0.000000 0.000000
        CHANNELS 3 Zrotation Xrotation Yrotation
        JOINT RightLeg
        {
            OFFSET -0.000000 -81.181816 0.000000
            CHANNELS 3 Zrotation Xrotation Yrotation
            JOINT RightFoot
            {
                OFFSET -0.000000 -62.821102 0.000000
                CHANNELS 3 Zrotation Xrotation Yrotation
                JOINT RightToeBase
                {
                    OFFSET -0.000000 -11.507608 26.556021
                    CHANNELS 3 Zrotation Xrotation Yrotation
                    End Site
                    {
                        OFFSET -0.000000 0.000000 7.081605
                    }
                }
            }
        }
    }
}
MOTION
Frames:    6
Frame Time:    0.008333
28.635225    142.168655    51.544243    5.219921    2.372016    -64.462509    -0.012004    3.551251    -2.893106    -0.254262    -0.974848    -0.967537    21.467119    11.502716    21.356237    -19.431875    0.919583    18.780638    13.824812    2.027493    -19.253740    -2.844111    -5.978666    -15.183125    3.645723    1.613821    -27.213127    -2.209763    3.117227    -31.429337    -6.807912    -2.655977    -8.106478    33.056374    -27.253054    46.161686    11.612192    -30.547161    110.826279    28.227058    -36.529987    37.626526    39.715580    -23.701420    34.646152    -38.723804    48.623074    12.093545    3.462827    -17.437775    43.853695    0.000000    0.000000    0.000000    -33.982758    -17.809895    -17.295921    4.237948    38.547832    -6.044567    21.104494    -11.171312    8.598133    0.000000    0.000000    0.000000    
28.659317    142.183380    51.540577    5.222577    2.378034    -64.460869    -0.005356    3.541544    -2.900408    -0.271185    -0.971697    -0.970005    21.490324    11.511435    21.358490    -19.450890    0.894677    18.777006    13.839881    2.048337    -19.250141    -2.851210    -6.345116    -15.310599    3.699096    1.774057    -28.345373    -2.369934    3.376077    -31.526541    -6.788546    -2.656334    -8.102702    33.047798    -27.260511    46.163036    11.609656    -30.544556    110.812645    28.209881    -36.522579    37.641632    39.708649    -23.708435    34.642067    -38.708237    48.604176    12.068243    3.472564    -17.421417    43.874134    0.000000    0.000000    0.000000    -33.971207    -17.802856    -17.302088    4.232140    38.504295    -6.059219    21.114445    -11.148487    8.593759    0.000000    0.000000    0.000000    
28.679329    142.199295    51.532791    5.217761    2.382162    -64.467827    -0.012019    3.545365    -2.901425    -0.265258    -0.978677    -0.970415    21.492441    11.480835    21.364634    -19.427034    0.923803    18.785179    13.840311    2.062933    -19.257029    -2.865250    -6.111115    -15.388254    4.059486    1.362568    -29.520449    -2.465982    3.126305    -31.472372    -6.784256    -2.665275    -8.098372    33.053886    -27.264784    46.159279    11.619220    -30.517841    110.811066    28.201118    -36.504467    37.671562    39.706600    -23.703064    34.647820    -38.684689    48.592270    12.061057    3.448048    -17.424202    43.867092    0.000000    0.000000    0.000000    -33.950157    -17.796944    -17.296507    4.215847    38.458675    -6.060637    21.098274    -11.123421    8.593638    0.000000    0.000000    0.000000    
28.701586    142.214081    51.527142    5.222291    2.383737    -64.464844    -0.027738    3.534946    -2.908686    -0.245710    -0.975585    -0.972742    21.481594    11.468869    21.360203    -19.421297    0.919265    18.778545    13.820861    2.066614    -19.264858    -2.869031    -6.147422    -15.479248    4.270364    1.199877    -30.714418    -2.505509    3.076332    -31.396555    -6.796145    -2.654449    -8.097276    33.057030    -27.276102    46.162666    11.611556    -30.512554    110.807770    28.184618    -36.499756    37.647495    39.694286    -23.711798    34.659485    -38.645561    48.587700    12.022949    3.437608    -17.412956    43.858765    0.000000    0.000000    0.000000    -33.942646    -17.788868    -17.324360    4.191951    38.417282    -6.061487    21.095110    -11.097243    8.607886    0.000000    0.000000    0.000000    
28.720135    142.230469    51.518166    5.220905    2.389719    -64.462868    -0.034750    3.523685    -2.915467    -0.240124    -0.968241    -0.975040    21.471714    11.451180    21.356833    -19.398979    0.915896    18.774157    13.816522    2.075133    -19.271765    -2.870338    -6.196730    -15.563134    4.462547    1.033180    -31.889992    -2.528820    3.021623    -31.526251    -6.793953    -2.660788    -8.090856    33.060493    -27.293043    46.154949    11.621603    -30.489670    110.808403    28.214315    -36.478668    37.661545    39.687420    -23.713869    34.655075    -38.609638    48.565666    12.003342    3.425869    -17.399120    43.841625    0.000000    0.000000    0.000000    -33.925835    -17.778875    -17.315735    4.190588    38.376453    -6.053007    21.079329    -11.089706    8.598166    0.000000    0.000000    0.000000    
28.740423    142.245621    51.510353    5.222075    2.392776    -64.464142    -0.046909    3.516517    -2.920766    -0.228330    -0.969403    -0.976807    21.461929    11.436143    21.352489    -19.380733    0.918154    18.769697    13.810807    2.087153    -19.281301    -2.865266    -6.300103    -15.651161    4.676216    1.169910    -33.046810    -2.314350    3.208236    -31.450312    -6.794133    -2.667124    -8.081259    33.046646    -27.299826    46.138710    11.634729    -30.474403    110.815979    28.229528    -36.476719    37.666317    39.679424    -23.710491    34.647457    -38.588264    48.528774    11.976461    3.426082    -17.377398    43.839828    0.000000    0.000000    0.000000    -33.911861    -17.773012    -17.322170    4.174312    38.336147    -6.066432    21.085072    -11.066011    8.612150    0.000000    0.000000    0.000000    
